<svg width="24" height="25" viewBox="0 0 24 25" fill="none" xmlns="http://www.w3.org/2000/svg">
<path opacity="0.4" d="M13 3.54089H11C6.02944 3.54089 2 7.57033 2 12.5409V17.5409C2 19.75 3.79086 21.5409 6 21.5409H13C17.9706 21.5409 22 17.5115 22 12.5409C22 7.57033 17.9706 3.54089 13 3.54089Z" fill="#FF7575"/>
<path d="M12.2651 10.4577L12 10.7229L11.7348 10.4577C11.0026 9.72551 9.81538 9.72551 9.08315 10.4577C8.35092 11.19 8.35092 12.3772 9.08315 13.1094L10.9393 14.9656C11.5251 15.5513 12.4748 15.5513 13.0606 14.9656L14.9168 13.1094C15.649 12.3772 15.649 11.19 14.9168 10.4577C14.1845 9.72551 12.9974 9.72551 12.2651 10.4577Z" fill="#FF7575"/>
</svg>
