<svg width="24" height="25" viewBox="0 0 24 25" fill="none" xmlns="http://www.w3.org/2000/svg">
<path opacity="0.4" d="M2.89645 11.3374L18.2851 4.68677C19.0088 4.37402 19.7929 4.9826 19.6695 5.76124L17.5655 19.0372C17.4355 19.8573 16.4206 20.1709 15.8506 19.5672L12.3977 15.9096C11.7206 15.1924 11.6675 14.0885 12.2727 13.3096L14.7107 10.1719C14.8501 9.99248 14.63 9.7565 14.4414 9.88305L9.59406 13.1349C8.77148 13.6867 7.77341 13.9137 6.79309 13.7719L3.15003 13.245C2.15204 13.1007 1.97083 11.7374 2.89645 11.3374Z" fill="#6ADC91"/>
<path fill-rule="evenodd" clip-rule="evenodd" d="M19.411 4.91999L14.6491 9.87311C14.5897 9.83925 14.5133 9.83483 14.4414 9.88305L9.59406 13.1349C8.77148 13.6867 7.77341 13.9137 6.79309 13.7719L3.15003 13.245C2.15204 13.1007 1.97083 11.7374 2.89645 11.3374L18.2851 4.68677C18.7021 4.50658 19.139 4.63221 19.411 4.91999Z" fill="#6ADC91"/>
</svg>
