<svg width="24" height="25" viewBox="0 0 24 25" fill="none" xmlns="http://www.w3.org/2000/svg">
<path opacity="0.4" d="M8 15.4409C8 11.369 11.8368 7.35192 13.8292 5.54034C14.5018 4.9288 15.4982 4.9288 16.1708 5.54034C18.1632 7.35192 22 11.369 22 15.4409C22 18.9409 19.3492 22.5409 15 22.5409C10.6508 22.5409 8 18.9409 8 15.4409Z" fill="#6A83DD"/>
<path d="M6.80975 3.60727C5.06035 5.29202 2 8.73824 2 12.2298C2 15.3409 4.27208 18.5409 8 18.5409C8.23361 18.5409 8.46151 18.5283 8.68349 18.504C8.23628 17.5397 8 16.4859 8 15.4409C8 12.3253 10.2463 9.24178 12.1939 7.15377C11.2211 5.68311 10.0483 4.4336 9.1905 3.6075C8.51673 2.95862 7.48352 2.9584 6.80975 3.60727Z" fill="#6A83DD"/>
<path fill-rule="evenodd" clip-rule="evenodd" d="M15.2637 19.6832C15.1851 19.2765 15.451 18.8831 15.8577 18.8045C17.1355 18.5575 18.0082 17.5451 18.268 16.3779C18.358 15.9736 18.7587 15.7188 19.163 15.8088C19.5674 15.8988 19.8222 16.2995 19.7322 16.7038C19.3632 18.3613 18.0945 19.8999 16.1424 20.2772C15.7358 20.3559 15.3423 20.0899 15.2637 19.6832Z" fill="#6A83DD"/>
</svg>
