<svg width="43" height="16" viewBox="0 0 43 16" fill="none" xmlns="http://www.w3.org/2000/svg">
<path d="M16.5372 1.19575C16.7369 0.943848 17.0864 0.943848 17.2861 1.14537L17.336 1.19575L20.531 5.47809C20.7807 5.78037 20.581 6.2338 20.1816 6.28418H20.1317H19.283L21.8789 10.9192C22.0786 11.2215 21.829 11.6245 21.4796 11.6749H21.4296H18.3844L18.7838 14.4458C18.8337 14.7481 18.634 15 18.3344 15H18.2845H15.7385C15.4389 15 15.2393 14.7481 15.2393 14.4962V14.4458L15.6386 11.6749H12.4436C12.0941 11.6749 11.8445 11.3222 11.9943 10.9696L12.0442 10.9192L14.6402 6.28418H13.7416C13.3422 6.28418 13.0926 5.83075 13.2923 5.52847L13.3422 5.47809L16.5372 1.19575Z" fill="#55DB82"/>
<path d="M42.4953 8.00065L42.2053 8.31663L39.9553 10.483L34.2953 15.9352L31.9133 13.2979L37.4193 7.99652L31.9373 2.6125L34.3433 0L39.9773 5.53272L42.4953 8.00065Z" fill="#55DB82"/>
<path d="M0 8.00065L0.29 8.31663L2.54 10.483L8.2 15.9352L10.582 13.2979L5.076 7.99652L10.558 2.6125L8.152 0L2.518 5.53272L0 8.00065Z" fill="#55DB82"/>
<path d="M27.7248 6.99647e-05L23 14.2827L25.9182 15.3121L30.643 1.02941L27.7248 6.99647e-05Z" fill="#55DB82"/>
</svg>
