<svg width="112" height="17" viewBox="0 0 112 17" fill="none" xmlns="http://www.w3.org/2000/svg">
<path d="M35.976 12.2262V7.28615C35.976 5.84876 35.528 5.32007 34.616 5.32007C33.608 5.32007 33.144 5.94789 33.144 7.15398V12.2262H30.488V7.1705C30.488 5.98094 30.072 5.32007 29.16 5.32007C28.12 5.32007 27.656 6.01398 27.656 7.28615V12.2262H25V3.05659H27.48V4.03137H27.512C27.976 3.17224 28.824 2.74268 29.96 2.74268C31.096 2.74268 31.96 3.33746 32.52 4.37833C33.16 3.33746 34.12 2.74268 35.336 2.74268C37.32 2.74268 38.632 3.99833 38.632 6.5592V12.2262H35.976V12.2262Z" fill="#38393D"/>
<path d="M42.3281 8.47572C42.4721 9.51659 43.3201 10.2105 44.4081 10.2105C45.1281 10.2105 45.5921 9.92963 46.0241 9.35137H48.7441C47.8961 11.3505 46.2801 12.5235 44.4081 12.5235C41.8481 12.5235 39.7041 10.3922 39.7041 7.66615C39.7041 4.94007 41.7521 2.74268 44.3601 2.74268C46.9681 2.74268 49.0481 4.90702 49.0481 7.74876C49.0481 8.01311 49.0321 8.22789 48.9841 8.47572H42.3281V8.47572ZM46.3921 6.62528C46.1841 5.68355 45.3841 5.05572 44.3601 5.05572C43.4001 5.05572 42.5681 5.6505 42.3601 6.62528H46.3921Z" fill="#38393D"/>
<path d="M50.1841 12.2262V3.05659H52.6801V4.03137H52.7121C53.1761 3.05659 53.9121 2.74268 54.9361 2.74268V5.50181C53.3521 5.51833 52.8401 6.12963 52.8401 7.1705V12.2262H50.1841V12.2262Z" fill="#38393D"/>
<path d="M62.088 11.1523C61.688 12.028 60.696 12.5236 59.608 12.5236C57.016 12.5236 55.144 10.4584 55.144 7.69928C55.144 4.94015 57.048 2.75928 59.608 2.75928C60.76 2.75928 61.64 3.20536 62.072 3.9158H62.104V3.05667H64.76V11.2515C64.76 12.4906 64.6 13.4323 64.28 14.0601C63.64 15.3323 61.896 16.3071 59.672 16.3071C57.16 16.3071 55.528 14.8367 55.304 13.0854H58.376C58.68 13.7628 59.272 13.9941 59.928 13.9941C61.272 13.9941 62.088 13.0854 62.088 11.4167V11.1523V11.1523ZM62.104 7.68276C62.104 6.34449 61.224 5.32015 59.928 5.32015C58.744 5.32015 57.8 6.3445 57.8 7.60015C57.8 8.8558 58.648 9.96276 59.928 9.96276C61.208 9.96276 62.104 9.0045 62.104 7.68276Z" fill="#38393D"/>
<path d="M66.488 2.08174V0H69.144V2.08174H66.488ZM66.488 12.2261V3.05652H69.144V12.2261H66.488Z" fill="#38393D"/>
<path d="M76.3119 12.2262V7.13746C76.3119 5.89833 75.8959 5.32007 74.9199 5.32007C73.8479 5.32007 73.3999 5.93137 73.3999 7.1705V12.2262H70.7439V3.05659H73.2239V4.03137H73.2559C73.8159 3.08963 74.5999 2.74268 75.6719 2.74268C77.2719 2.74268 78.9679 3.66789 78.9679 6.37746V12.2262H76.3119V12.2262Z" fill="#38393D"/>
<path d="M87.0641 11.1523C86.6641 12.028 85.6721 12.5236 84.5841 12.5236C81.9921 12.5236 80.1201 10.4584 80.1201 7.69928C80.1201 4.94015 82.0241 2.75928 84.5841 2.75928C85.7361 2.75928 86.6161 3.20536 87.0481 3.9158H87.0801V3.05667H89.7361V11.2515C89.7361 12.4906 89.5761 13.4323 89.2561 14.0601C88.6161 15.3323 86.8721 16.3071 84.6481 16.3071C82.1361 16.3071 80.5041 14.8367 80.2801 13.0854H83.3521C83.6561 13.7628 84.2481 13.9941 84.9041 13.9941C86.2481 13.9941 87.0641 13.0854 87.0641 11.4167V11.1523V11.1523ZM87.0801 7.68276C87.0801 6.34449 86.2001 5.32015 84.9041 5.32015C83.7201 5.32015 82.7761 6.3445 82.7761 7.60015C82.7761 8.8558 83.6241 9.96276 84.9041 9.96276C86.1841 9.96276 87.0801 9.0045 87.0801 7.68276Z" fill="#38393D"/>
<path d="M16.5372 1.19575C16.7369 0.943848 17.0864 0.943848 17.2861 1.14537L17.336 1.19575L20.531 5.47809C20.7807 5.78037 20.581 6.2338 20.1816 6.28418H20.1317H19.283L21.8789 10.9192C22.0786 11.2215 21.829 11.6245 21.4796 11.6749H21.4296H18.3844L18.7838 14.4458C18.8337 14.7481 18.634 15 18.3344 15H18.2845H15.7385C15.4389 15 15.2393 14.7481 15.2393 14.4962V14.4458L15.6386 11.6749H12.4436C12.0941 11.6749 11.8445 11.3222 11.9943 10.9696L12.0442 10.9192L14.6402 6.28418H13.7416C13.3422 6.28418 13.0926 5.83075 13.2923 5.52847L13.3422 5.47809L16.5372 1.19575Z" fill="#55DB82"/>
<path d="M111.495 8.00065L111.205 8.31663L108.955 10.483L103.295 15.9352L100.913 13.2979L106.419 7.99652L100.937 2.6125L103.343 0L108.977 5.53272L111.495 8.00065Z" fill="#55DB82"/>
<path d="M0 8.00065L0.29 8.31663L2.54 10.483L8.2 15.9352L10.582 13.2979L5.076 7.99652L10.558 2.6125L8.152 0L2.518 5.53272L0 8.00065Z" fill="#55DB82"/>
<path d="M96.7248 6.99647e-05L92 14.2827L94.9182 15.3121L99.643 1.02941L96.7248 6.99647e-05Z" fill="#55DB82"/>
</svg>
