<svg width="25" height="24" viewBox="0 0 25 24" fill="none" xmlns="http://www.w3.org/2000/svg">
<path fill-rule="evenodd" clip-rule="evenodd" d="M12.7881 3C9.55903 3 6.84191 5.49085 6.46772 8.79403L6.12284 11.8385C6.03715 12.595 5.73055 13.3069 5.24358 13.88C4.21017 15.0964 5.0489 17 6.61822 17H18.958C20.5273 17 21.366 15.0964 20.3326 13.88C19.8456 13.3069 19.539 12.595 19.4533 11.8385L19.1084 8.79403C18.7343 5.49085 16.0171 3 12.7881 3ZM15.7602 19.0715C15.3028 20.1992 14.1446 21 12.7881 21C11.4316 21 10.2733 20.1992 9.81598 19.0715C9.79691 19.0245 9.78809 18.974 9.78809 18.9233C9.78809 18.6895 9.9776 18.5 10.2114 18.5H15.3648C15.5986 18.5 15.7881 18.6895 15.7881 18.9233C15.7881 18.974 15.7793 19.0245 15.7602 19.0715Z" fill="#BABFC0"/>
</svg>
