<svg width="25" height="24" viewBox="0 0 25 24" fill="none" xmlns="http://www.w3.org/2000/svg">
<path d="M16.5083 2H8.0083C6.4883 2 5.2583 3.23 5.2583 4.75V20.24C5.2583 20.94 5.65829 21.56 6.29829 21.84C6.93829 22.12 7.6583 22.01 8.1783 21.54C8.6583 21.11 9.1383 20.67 9.6283 20.22C10.4483 19.46 11.2783 18.71 12.0983 18C12.1883 17.92 12.3183 17.92 12.4083 18C13.2283 18.71 14.0483 19.46 14.8683 20.21C15.3583 20.66 15.8483 21.11 16.3483 21.55C16.6783 21.84 17.0883 22 17.5083 22C17.7483 22 17.9983 21.95 18.2283 21.84C18.8683 21.55 19.2683 20.94 19.2683 20.24V4.74001C19.2583 3.23001 18.0283 2 16.5083 2Z" fill="#BABFC0"/>
</svg>
