<svg width="45" height="45" viewBox="0 0 45 45" fill="none" xmlns="http://www.w3.org/2000/svg">
<path fill-rule="evenodd" clip-rule="evenodd" d="M16.6771 4.58337C16.6771 3.84124 16.0755 3.23962 15.3333 3.23962C14.5912 3.23962 13.9896 3.84124 13.9896 4.58337V7.27087H13.5417C9.58363 7.27087 6.375 10.4795 6.375 14.4375V15.7813H38.625V14.4375C38.625 10.4795 35.4164 7.27087 31.4583 7.27087H31.0104V4.58337C31.0104 3.84124 30.4088 3.23962 29.6667 3.23962C28.9245 3.23962 28.3229 3.84124 28.3229 4.58337V7.27087H16.6771V4.58337ZM6.375 18.4688H38.625V33.25C38.625 37.2081 35.4164 40.4167 31.4583 40.4167H13.5417C9.58363 40.4167 6.375 37.2081 6.375 33.25V18.4688Z" fill="#6A83DD"/>
</svg>
