<svg width="45" height="45" viewBox="0 0 45 45" fill="none" xmlns="http://www.w3.org/2000/svg">
<path fill-rule="evenodd" clip-rule="evenodd" d="M22.5001 41.25C32.6253 41.25 40.8334 32.8553 40.8334 22.5C40.8334 12.1447 32.6253 3.75 22.5001 3.75C12.3749 3.75 4.16675 12.1447 4.16675 22.5C4.16675 32.8553 12.3749 41.25 22.5001 41.25ZM30.9188 17.7384C31.385 17.1254 31.277 16.2419 30.6776 15.765C30.0782 15.2882 29.2143 15.3987 28.7481 16.0117L21.4019 25.6714C21.2385 25.8862 20.9313 25.9141 20.7335 25.7321L16.0866 21.4548C15.5221 20.9353 14.6527 20.9821 14.1447 21.5593C13.6367 22.1366 13.6825 23.0258 14.2469 23.5453L18.8938 27.8226C20.2783 29.0969 22.4291 28.9018 23.5726 27.3982L30.9188 17.7384Z" fill="#55DB82"/>
</svg>
