<svg width="25" height="24" viewBox="0 0 25 24" fill="none" xmlns="http://www.w3.org/2000/svg">
<path d="M11.6004 11.17L14.7204 9.76001L13.3404 12.83L10.1904 14.32L11.6004 11.17Z" fill="#BABFC0"/>
<path d="M12.4702 2C6.96021 2 2.47021 6.49 2.47021 12C2.47021 17.51 6.96021 22 12.4702 22C17.9802 22 22.4702 17.51 22.4702 12C22.4702 6.49 17.9802 2 12.4702 2ZM16.1702 10.17L14.6602 13.49C14.5202 13.8 14.2702 14.05 13.9602 14.19L10.6402 15.7C10.4502 15.79 10.2502 15.83 10.0502 15.83C9.68022 15.83 9.33022 15.69 9.05022 15.42C8.63022 15 8.52022 14.37 8.77022 13.83L10.2802 10.51C10.4202 10.2 10.6702 9.95 10.9802 9.81L14.3002 8.3C14.8402 8.05 15.4702 8.16 15.8902 8.58C16.3102 9 16.4202 9.63 16.1702 10.17Z" fill="#BABFC0"/>
</svg>
