<svg width="24" height="24" viewBox="0 0 24 24" fill="none" xmlns="http://www.w3.org/2000/svg">
<path opacity="0.4" d="M8 14.9C8 10.8281 11.8368 6.81103 13.8292 4.99944C14.5018 4.38791 15.4982 4.38791 16.1708 4.99944C18.1632 6.81103 22 10.8281 22 14.9C22 18.4 19.3492 22 15 22C10.6508 22 8 18.4 8 14.9Z" fill="#55DB82"/>
<path d="M6.80975 3.06638C5.06035 4.75112 2 8.19735 2 11.6889C2 14.8 4.27208 18 8 18C8.23361 18 8.46151 17.9875 8.68349 17.9631C8.23628 16.9988 8 15.945 8 14.9C8 11.7844 10.2463 8.70089 12.1939 6.61288C11.2211 5.14221 10.0483 3.8927 9.1905 3.06661C8.51673 2.41773 7.48352 2.4175 6.80975 3.06638Z" fill="#55DB82"/>
<path fill-rule="evenodd" clip-rule="evenodd" d="M15.2637 19.1423C15.1851 18.7357 15.451 18.3422 15.8577 18.2636C17.1355 18.0166 18.0082 17.0042 18.268 15.837C18.358 15.4327 18.7587 15.1779 19.163 15.2679C19.5674 15.3579 19.8222 15.7586 19.7322 16.1629C19.3632 17.8204 18.0945 19.359 16.1424 19.7363C15.7358 19.815 15.3423 19.549 15.2637 19.1423Z" fill="#55DB82"/>
</svg>
