<svg width="25" height="24" viewBox="0 0 25 24" fill="none" xmlns="http://www.w3.org/2000/svg">
<path d="M22.6821 12C22.6821 6.49 18.1921 2 12.6821 2C7.16213 2 2.68213 6.49 2.68213 12C2.68213 17.51 7.16213 22 12.6821 22C14.1821 22 15.6321 21.67 16.9921 21.01L21.7721 21.72C22.0021 21.75 22.2421 21.67 22.4121 21.5C22.5721 21.34 22.6521 21.1 22.6221 20.86L21.8821 15.89C22.4121 14.64 22.6821 13.34 22.6821 12ZM8.56213 13.03C8.00213 13.03 7.54213 12.57 7.54213 12C7.54213 11.43 8.00213 10.97 8.56213 10.97C9.13213 10.97 9.59213 11.43 9.59213 12C9.59213 12.57 9.13213 13.03 8.56213 13.03ZM12.6721 13.03C12.1121 13.03 11.6521 12.57 11.6521 12C11.6521 11.43 12.1121 10.97 12.6721 10.97C13.2421 10.97 13.7021 11.43 13.7021 12C13.7021 12.57 13.2421 13.03 12.6721 13.03ZM16.7921 13.03C16.2221 13.03 15.7621 12.57 15.7621 12C15.7621 11.43 16.2221 10.97 16.7921 10.97C17.3521 10.97 17.8121 11.43 17.8121 12C17.8121 12.57 17.3521 13.03 16.7921 13.03Z" fill="#BABFC0"/>
<rect x="5.68213" y="10.9529" width="14" height="5.19543" fill="#BABFC0"/>
</svg>
