<svg width="45" height="45" viewBox="0 0 45 45" fill="none" xmlns="http://www.w3.org/2000/svg">
<path d="M34.6001 13.4067L32.8951 10.8034C32.4001 9.96008 31.4651 9.42838 30.3284 9.39171C29.3018 9.39171 28.3301 9.88672 27.7985 10.6567L27.1201 11.6284L23.9851 5.68845C23.0134 4.03845 20.4285 3.6534 18.9618 5.17507L10.8034 14.3234C7.88844 17.4951 6.29346 21.5101 6.29346 25.6351C6.29346 26.3501 6.40344 27.2118 6.67844 28.4768C6.73344 28.6968 6.78845 28.9351 6.86179 29.1918L6.95343 29.6134C8.6401 35.8651 14.6535 40.3751 22.0051 40.8334H22.1151C29.6501 40.8334 36.3601 36.1401 38.0285 29.6867C38.1201 29.4301 38.1751 29.1734 38.2484 28.9168C38.2851 28.7701 38.3218 28.6234 38.3951 28.3484C38.6151 27.2484 38.7068 26.4235 38.7068 25.7635V25.5251C38.7068 21.2718 36.5985 16.4684 34.6001 13.4067ZM27.3951 33.3534C27.3585 33.4817 27.3218 33.6101 27.2851 33.7568L27.2484 33.9217C26.8818 35.2967 25.8185 36.4518 24.3335 37.0935C23.6368 37.4051 22.9034 37.5701 22.1334 37.6251H22.0601C21.4918 37.6251 20.8501 37.4235 20.0985 37.0935C18.6318 36.4518 17.5684 35.2968 17.1468 33.7568C17.1101 33.6101 17.0918 33.4634 17.0735 33.445C17.0001 33.06 16.9451 32.7851 16.9451 32.6018C16.9451 31.1901 17.5134 29.8151 18.5218 28.7151L22.2251 24.5718L25.9284 28.7335C26.9368 29.8151 27.4868 31.1901 27.4868 32.6018C27.4868 32.7851 27.4501 33.0784 27.3951 33.3534Z" fill="#FF7575"/>
</svg>
