<svg width="24" height="24" viewBox="0 0 24 24" fill="none" xmlns="http://www.w3.org/2000/svg">
<path d="M17.4602 3.54003C14.2002 1.48003 9.81022 1.48003 6.54022 3.53003C3.28022 5.59003 1.38021 9.54003 1.82021 13.37C2.26021 17.21 5.01022 20.63 8.65022 21.89C8.88022 21.97 9.08021 22 9.25022 22C9.62021 22 9.87021 21.85 10.0302 21.69C10.3902 21.35 10.3902 20.89 10.3902 20.69L10.4002 19.98C10.4002 19.46 10.4002 18.94 10.3902 18.42L10.3802 17.57L10.4202 17.19C10.4702 16.84 10.6202 16.5 10.8502 16.22C11.0402 15.98 11.0702 15.65 10.9202 15.38C10.7802 15.11 10.4902 14.97 10.1702 15C9.01021 15.15 7.74022 14.53 7.12022 13.52C6.50022 12.5 6.54022 11.11 7.25022 10.09C7.34022 9.95002 7.47021 9.77002 7.53021 9.52002C7.61021 9.20002 7.55022 8.92003 7.50022 8.66003C7.43021 8.29003 7.44021 7.90003 7.53021 7.51003C7.80021 7.60003 8.07021 7.71003 8.31021 7.85003L8.49021 7.95002C8.77021 8.12002 9.12021 8.33003 9.56021 8.40003C9.97021 8.47003 10.3602 8.39003 10.6702 8.33003L10.7902 8.30003C11.5802 8.15003 12.4202 8.14003 13.2102 8.29003L13.3502 8.32003C13.7602 8.40003 14.2802 8.50003 14.8102 8.33003C15.0902 8.24003 15.3202 8.10003 15.5002 7.98003L15.6102 7.91003C15.9002 7.73003 16.2002 7.59003 16.5402 7.50003C16.6102 7.82003 16.6302 8.17003 16.5602 8.57003C16.5202 8.76003 16.4702 9.03003 16.5202 9.32003C16.5802 9.67003 16.7602 9.94003 16.9502 10.21C17.6002 11.2 17.6102 12.58 16.9802 13.58C16.3402 14.57 15.0802 15.15 13.9202 14.98C13.6102 14.93 13.3202 15.08 13.1702 15.34C13.0102 15.6 13.0302 15.93 13.2102 16.17C13.5502 16.62 13.7102 17.27 13.7002 18.17C13.7002 18.45 13.6802 18.74 13.6702 19.02C13.6302 19.61 13.6002 20.21 13.6702 20.84C13.6902 21.02 13.7502 21.54 14.2302 21.83C14.6902 22.12 15.1702 21.95 15.3502 21.89C17.7702 21.05 19.8602 19.22 21.1002 16.86C21.6802 15.75 22.0402 14.58 22.1802 13.38C22.6202 9.54002 20.7202 5.59003 17.4602 3.54003Z" fill="#BABFC0"/>
</svg>
