<svg width="25" height="24" viewBox="0 0 25 24" fill="none" xmlns="http://www.w3.org/2000/svg">
<path fill-rule="evenodd" clip-rule="evenodd" d="M2.36426 6C2.36426 3.79086 4.15512 2 6.36426 2H18.3643C20.5734 2 22.3643 3.79086 22.3643 6V12.449L20.1177 10.9786C18.3832 9.84327 16.1129 9.96391 14.5085 11.2766L9.27025 15.5624C8.1725 16.4606 6.61908 16.5431 5.43234 15.7663L2.36426 13.7581V6ZM19.2962 12.2336L22.3643 14.2418V18C22.3643 20.2091 20.5734 22 18.3643 22H6.36426C4.15512 22 2.36426 20.2091 2.36426 18V15.5509L4.61085 17.0214C6.34532 18.1567 8.61571 18.036 10.2201 16.7233L15.4583 12.4375C16.5561 11.5394 18.1095 11.4568 19.2962 12.2336ZM8.86426 11C10.245 11 11.3643 9.88071 11.3643 8.5C11.3643 7.11929 10.245 6 8.86426 6C7.48355 6 6.36426 7.11929 6.36426 8.5C6.36426 9.88071 7.48355 11 8.86426 11Z" fill="#BABFC0"/>
</svg>
