<svg width="25" height="24" viewBox="0 0 25 24" fill="none" xmlns="http://www.w3.org/2000/svg">
<path d="M4.96234 9.18994C3.41234 9.18994 2.15234 10.4499 2.15234 11.9999C2.15234 13.5499 3.41234 14.8099 4.96234 14.8099C6.50234 14.8099 7.76233 13.5499 7.76233 11.9999C7.76233 10.4499 6.50234 9.18994 4.96234 9.18994Z" fill="#BABFC0"/>
<path d="M12.1523 14.8099C13.7042 14.8099 14.9623 13.5519 14.9623 11.9999C14.9623 10.448 13.7042 9.18994 12.1523 9.18994C10.6004 9.18994 9.34229 10.448 9.34229 11.9999C9.34229 13.5519 10.6004 14.8099 12.1523 14.8099Z" fill="#BABFC0"/>
<path d="M19.3425 9.18994C17.8025 9.18994 16.5425 10.4499 16.5425 11.9999C16.5425 13.5499 17.8025 14.8099 19.3425 14.8099C20.8925 14.8099 22.1525 13.5499 22.1525 11.9999C22.1525 10.4499 20.8925 9.18994 19.3425 9.18994Z" fill="#BABFC0"/>
</svg>
