<svg width="25" height="24" viewBox="0 0 25 24" fill="none" xmlns="http://www.w3.org/2000/svg">
<path d="M20.0462 13.34C19.6189 13.4316 19.1832 13.4785 18.7462 13.48C17.6557 13.49 16.5846 13.1919 15.6562 12.62C14.7271 13.1821 13.662 13.4792 12.5762 13.4792C11.4903 13.4792 10.4252 13.1821 9.49617 12.62C8.56771 13.1919 7.49661 13.49 6.40617 13.48C5.96916 13.4785 5.53349 13.4316 5.10617 13.34C4.65586 13.2493 4.21899 13.1015 3.80617 12.9L3.57617 12.79V18C3.57617 18.7435 3.87085 19.4567 4.39566 19.9834C4.92048 20.5101 5.63265 20.8073 6.37617 20.81H9.76617V15.91C9.76617 15.7111 9.84519 15.5203 9.98584 15.3797C10.1265 15.239 10.3173 15.16 10.5162 15.16H14.6362C14.8351 15.16 15.0258 15.239 15.1665 15.3797C15.3072 15.5203 15.3862 15.7111 15.3862 15.91V20.77H18.7462C19.488 20.7754 20.2019 20.4871 20.732 19.9682C21.2622 19.4493 21.5656 18.7418 21.5762 18V12.79L21.3762 12.9C20.9539 13.1039 20.5068 13.2518 20.0462 13.34Z" fill="#BABFC0"/>
<path d="M6.09629 3.22999H8.96629V11.16C8.22664 11.7102 7.32814 12.005 6.40629 12C5.96584 12.0028 5.52751 11.9388 5.10629 11.81C4.88566 11.751 4.67131 11.6706 4.46629 11.57C4.13016 11.4133 3.82784 11.1925 3.57629 10.92C3.20054 10.5273 2.92663 10.0486 2.77846 9.52562C2.6303 9.00269 2.61239 8.45144 2.72629 7.91999L3.30629 5.18999C3.47825 4.59419 3.84863 4.07503 4.35606 3.71856C4.86348 3.36209 5.47748 3.18971 6.09629 3.22999Z" fill="#BABFC0"/>
<path d="M9.96631 3.22998H15.1863V11.11C14.4333 11.6747 13.5175 11.98 12.5763 11.98C11.6351 11.98 10.7193 11.6747 9.96631 11.11V3.22998Z" fill="#BABFC0"/>
<path d="M21.5763 10.91C21.3322 11.1753 21.0405 11.3924 20.7163 11.55C20.5113 11.6506 20.2969 11.731 20.0763 11.79C19.6551 11.9188 19.2168 11.9829 18.7763 11.98C17.8567 11.9909 16.9584 11.7031 16.2163 11.16V3.23001H19.0863C19.6976 3.19559 20.3025 3.36838 20.8034 3.72043C21.3043 4.07249 21.6717 4.58322 21.8463 5.17001L22.4263 7.87001C22.4312 7.90651 22.4312 7.94351 22.4263 7.98001C22.5326 8.50072 22.5108 9.03945 22.3627 9.54985C22.2146 10.0603 21.9448 10.527 21.5763 10.91Z" fill="#BABFC0"/>
</svg>
