<svg width="24" height="24" viewBox="0 0 24 24" fill="none" xmlns="http://www.w3.org/2000/svg">
<path d="M21.3019 17.9311L18.074 14.708C19.071 12.9001 19.3818 10.793 18.9492 8.77424C18.5166 6.75547 17.3698 4.96072 15.7196 3.72002C14.0694 2.47931 12.0267 1.87607 9.96724 2.02121C7.90776 2.16636 5.9699 3.05013 4.51002 4.51002C3.05013 5.9699 2.16636 7.90776 2.02121 9.96724C1.87607 12.0267 2.47931 14.0694 3.72002 15.7196C4.96072 17.3698 6.75547 18.5166 8.77424 18.9492C10.793 19.3818 12.9001 19.071 14.708 18.074L17.9311 21.3019C18.3781 21.7489 18.9844 22 19.6165 22C20.2487 22 20.8549 21.7489 21.3019 21.3019C21.7489 20.8549 22 20.2487 22 19.6165C22 18.9844 21.7489 18.3781 21.3019 17.9311ZM4.38152 10.5707C4.38152 9.34662 4.74451 8.15 5.42459 7.13219C6.10467 6.11438 7.07129 5.32109 8.20222 4.85264C9.33316 4.38419 10.5776 4.26163 11.7782 4.50044C12.9788 4.73925 14.0816 5.32872 14.9472 6.1943C15.8128 7.05988 16.4022 8.16269 16.641 9.36328C16.8798 10.5639 16.7573 11.8083 16.2888 12.9392C15.8204 14.0702 15.0271 15.0368 14.0093 15.7169C12.9915 16.397 11.7948 16.76 10.5707 16.76C8.92925 16.76 7.355 16.1079 6.1943 14.9472C5.03359 13.7865 4.38152 12.2122 4.38152 10.5707Z" fill="#BABFC0"/>
</svg>
