<svg width="45" height="45" viewBox="0 0 45 45" fill="none" xmlns="http://www.w3.org/2000/svg">
<path d="M39.2847 10.6005C39.0297 8.00805 36.9896 5.96807 34.4184 5.71307L26.8747 4.99058C25.1747 4.84183 23.5385 5.43683 22.3272 6.64808L6.64469 22.3306C5.58219 23.3931 4.98717 24.7743 4.96592 26.2618C4.94467 27.7493 5.49717 29.1306 6.55967 30.1931L14.8047 38.4381C15.8247 39.4793 17.2059 40.0318 18.6509 40.0318H18.7359C20.2234 40.0106 21.6046 39.4155 22.6671 38.353L38.3497 22.6705C39.5609 21.4593 40.1772 19.8018 40.0072 18.1443L39.2847 10.6005ZM36.0972 20.418L20.4146 36.1005C19.9471 36.568 19.3309 36.8443 18.6934 36.8443C18.0559 36.8018 17.5034 36.6318 17.0572 36.1856L8.81217 27.9406C8.38717 27.4943 8.15342 26.9206 8.15342 26.3043C8.17467 25.6668 8.42969 25.0506 8.89719 24.5831L24.5797 8.90057C25.0684 8.41182 25.6847 8.15681 26.3434 8.15681C26.4072 8.15681 26.4922 8.15683 26.5559 8.17808L34.0997 8.8793C35.1834 8.98555 36.0122 9.81433 36.1184 10.8981L36.8409 18.4418C36.9047 19.1643 36.6284 19.8868 36.0972 20.418Z" fill="#6A83DD"/>
<path d="M39.2847 10.6005C39.0297 8.00805 36.9896 5.96807 34.4184 5.71307L26.8747 4.99058C25.1747 4.84183 23.5385 5.43683 22.3272 6.64808L6.64469 22.3306C5.58219 23.3931 4.98717 24.7743 4.96592 26.2618C4.94467 27.7493 5.49717 29.1306 6.55967 30.1931L14.8047 38.4381C15.8247 39.4793 17.2059 40.0318 18.6509 40.0318H18.7359C20.2234 40.0106 21.6046 39.4155 22.6671 38.353L38.3497 22.6705C39.5609 21.4593 40.1772 19.8018 40.0072 18.1443L39.2847 10.6005ZM28.8084 13.0018C29.6797 12.1093 31.1247 12.1093 31.9959 13.0018C32.8884 13.8731 32.8884 15.3181 31.9959 16.1893C31.5709 16.6356 30.9759 16.8693 30.4022 16.8693C29.8284 16.8693 29.2334 16.6356 28.8084 16.1893C27.9159 15.3181 27.9159 13.8731 28.8084 13.0018Z" fill="#6A83DD"/>
</svg>
