<svg width="21" height="20" viewBox="0 0 21 20" fill="none" xmlns="http://www.w3.org/2000/svg">
<path fill-rule="evenodd" clip-rule="evenodd" d="M10.0278 3.5H11.4723C15.0621 3.5 17.9723 6.41015 17.9723 10C17.9723 13.5899 15.0621 16.5 11.4723 16.5H6.41672C4.82123 16.5 3.52783 15.2066 3.52783 13.6111V10C3.52783 6.41015 6.43798 3.5 10.0278 3.5ZM10.7501 10.7222C11.1489 10.7222 11.4723 10.3989 11.4723 10C11.4723 9.60113 11.1489 9.27778 10.7501 9.27778C10.3512 9.27778 10.0278 9.60113 10.0278 10C10.0278 10.3989 10.3512 10.7222 10.7501 10.7222ZM14.3612 10C14.3612 10.3989 14.0378 10.7222 13.6389 10.7222C13.2401 10.7222 12.9167 10.3989 12.9167 10C12.9167 9.60113 13.2401 9.27778 13.6389 9.27778C14.0378 9.27778 14.3612 9.60113 14.3612 10ZM7.86117 10.7222C8.26004 10.7222 8.58339 10.3989 8.58339 10C8.58339 9.60113 8.26004 9.27778 7.86117 9.27778C7.46229 9.27778 7.13894 9.60113 7.13894 10C7.13894 10.3989 7.46229 10.7222 7.86117 10.7222Z" fill="#FFA361"/>
</svg>
