<svg width="21" height="20" viewBox="0 0 21 20" fill="none" xmlns="http://www.w3.org/2000/svg">
<path d="M14.2917 8.69158V4.99158C14.2917 4.43325 13.9917 3.94158 13.5167 3.69158C13.0667 3.46658 12.5333 3.49992 12.1167 3.79992L6.59167 7.74158H4.5C4.15833 7.74158 3.875 8.02492 3.875 8.36658V11.6416C3.875 11.9833 4.15833 12.2666 4.5 12.2666H6.59167L12.1167 16.2082C12.35 16.3749 12.625 16.4582 12.9 16.4582C13.1167 16.4582 13.325 16.4082 13.5167 16.3082C13.9917 16.0666 14.2917 15.5666 14.2917 15.0166V11.3166C14.7833 11.0833 15.125 10.5832 15.125 9.99992C15.125 9.42492 14.7833 8.92492 14.2917 8.69158ZM6.16667 11.0166H5.125V8.99158H6.16667V11.0166Z" fill="#FF8D8D"/>
<path d="M16.7084 7.79172C16.4667 7.55006 16.0667 7.55006 15.825 7.79172C15.5834 8.04172 15.5834 8.43339 15.825 8.67506C16.1834 9.03339 16.3751 9.50006 16.3751 10.0001C16.3751 10.5001 16.1834 10.9751 15.825 11.3251C15.5834 11.5751 15.5834 11.9667 15.825 12.2084C15.95 12.3334 16.1084 12.3917 16.2667 12.3917C16.425 12.3917 16.5834 12.3334 16.7084 12.2084C17.3 11.6251 17.6251 10.8334 17.6251 10.0001C17.6251 9.16672 17.3 8.38339 16.7084 7.79172Z" fill="#FF8D8D"/>
</svg>
