<svg width="21" height="20" viewBox="0 0 21 20" fill="none" xmlns="http://www.w3.org/2000/svg">
<path d="M10.2501 1.50004C10.5001 1.18754 10.9376 1.18754 11.1876 1.43754L11.2501 1.50004L15.2501 6.81254C15.5626 7.18754 15.3126 7.75004 14.8126 7.81254H14.7501H13.6876L16.9376 13.5625C17.1876 13.9375 16.8751 14.4375 16.4376 14.5H16.3751H12.5626L13.0626 17.9375C13.1251 18.3125 12.8751 18.625 12.5001 18.625H12.4376H9.25009C8.87509 18.625 8.62509 18.3125 8.62509 18V17.9375L9.12509 14.5H5.12509C4.68759 14.5 4.37509 14.0625 4.56259 13.625L4.62509 13.5625L7.87509 7.81254H6.75009C6.25009 7.81254 5.93759 7.25004 6.18759 6.87504L6.25009 6.81254L10.2501 1.50004ZM11.3126 14.5H10.4376L10.0001 17.375H11.7501L11.3126 14.5Z" fill="#55DB82"/>
</svg>
